<?xml version="1.0" encoding="utf-8"?>
<!-- Generator: Adobe Illustrator 22.1.0, SVG Export Plug-In . SVG Version: 6.00 Build 0)  -->
<svg version="1.1" id="Layer_1" xmlns="http://www.w3.org/2000/svg" xmlns:xlink="http://www.w3.org/1999/xlink" x="0px" y="0px"
	 viewBox="0 0 503.6 526.1" style="enable-background:new 0 0 503.6 526.1;" xml:space="preserve">
<style type="text/css">
	.st0{clip-path:url(#SVGID_2_);}
	.st1{fill:#FFFFFF;}
	.st2{fill:none;stroke:#FFFFFF;stroke-width:23;stroke-linecap:round;stroke-miterlimit:10;}
	.st3{fill:url(#SVGID_3_);}
	.st4{fill:url(#SVGID_4_);}
	.st5{fill:url(#SVGID_5_);}
	.st6{fill:#739AFF;enable-background:new    ;}
	.st7{fill:none;stroke:#FFFFFF;stroke-width:23;stroke-miterlimit:10;}
	.st8{fill:none;stroke:#FFFFFF;stroke-width:0.9225;stroke-miterlimit:10;}
</style>
<g>
	<linearGradient id="SVGID_2_" gradientUnits="userSpaceOnUse" x1="220.2419" y1="73.4397" x2="299.0548" y2="520.4098">
		<stop  offset="0" style="stop-color:#FF488A"/>
		<stop  offset="0.3997" style="stop-color:#FD488A"/>
		<stop  offset="0.5437" style="stop-color:#F6478C"/>
		<stop  offset="0.6464" style="stop-color:#EB458F"/>
		<stop  offset="0.7293" style="stop-color:#DA4293"/>
		<stop  offset="0.7996" style="stop-color:#C43F99"/>
		<stop  offset="0.8297" style="stop-color:#B83D9C"/>
		<stop  offset="0.8797" style="stop-color:#AC3B9F"/>
		<stop  offset="0.8892" style="stop-color:#A93BA0"/>
		<stop  offset="1" style="stop-color:#A93BA0"/>
	</linearGradient>
	<path style="fill:url(#SVGID_2_);" d="M441.7,395.7c31.2-41.2,48.4-91.9,48.4-143.3c0-41.1-10.7-81.7-30.9-117.4
		c-3.2-5.6-10.3-7.5-15.9-4.2c-5.4,3.2-7,10.4-3.9,15.9c18.2,32.2,27.8,68.8,27.8,105.8c0,48.5-16.1,94.5-46.4,132.9l0,0
		c-1.9,2.4-2.8,5.5-2.4,8.6l11.6,89.4l-87.1-32.2l-0.5-0.2c-2.7-0.9-5.6-0.9-8.2,0.2c-26.2,11-53.9,16.5-82.3,16.5
		c-118.7,0-215.3-96.6-215.3-215.3S133.1,37.1,251.8,37.1c37.6,0,74.7,9.9,107.4,28.7c5.6,3.2,12.7,1.2,15.8-4.4
		c3.1-5.6,0.8-12.6-4.7-15.7c-36-20.6-77-31.5-118.5-31.5c-63.3,0-123,24.9-168.2,70.1c-45.2,45.2-70.1,105-70.1,168.2
		s24.9,123,70.1,168.2c45.2,45.2,105,70.1,168.2,70.1c30,0,59.2-5.6,87-16.6l100.6,37.2c1.3,0.5,2.7,0.7,4.1,0.7
		c2.6,0,5.2-0.9,7.3-2.6c3.2-2.5,4.9-6.7,4.3-10.7L441.7,395.7z"/>
	<linearGradient id="SVGID_3_" gradientUnits="userSpaceOnUse" x1="223.6186" y1="92.4468" x2="280.0285" y2="412.3634">
		<stop  offset="0" style="stop-color:#FF488A"/>
		<stop  offset="0.3027" style="stop-color:#FD488B"/>
		<stop  offset="0.469" style="stop-color:#F5468D"/>
		<stop  offset="0.6022" style="stop-color:#E74490"/>
		<stop  offset="0.7179" style="stop-color:#D34195"/>
		<stop  offset="0.8212" style="stop-color:#BA3E9C"/>
		<stop  offset="0.8784" style="stop-color:#A93BA0"/>
		<stop  offset="1" style="stop-color:#A93BA0"/>
	</linearGradient>
	<path class="st3" d="M272.1,413.5c0.5,0,1,0,1.6-0.1c80.2-10.9,140.6-80.1,140.6-161c0-43.1-17-83.8-47.8-114.6
		C335.6,107,294.9,90,251.8,90c-43.1,0-83.8,17-114.6,47.8c-30.8,30.8-47.8,71.5-47.8,114.6c0,24.6,5.7,49.3,16.5,71.4
		c10.8,22.1,26.8,41.8,46.2,56.9c5,3.9,12.2,3,16.1-2c3.9-5,3-12.2-2-16.1c-33.7-26.2-53.9-67.4-53.9-110.1
		c0-76.9,62.5-139.4,139.4-139.4c76.9,0,139.4,62.5,139.4,139.4c0,69.4-51.9,128.8-120.7,138.2c-6.3,0.9-10.7,6.6-9.9,12.9
		C261.5,409.3,266.4,413.5,272.1,413.5z"/>
	<linearGradient id="SVGID_4_" gradientUnits="userSpaceOnUse" x1="206.1232" y1="81.9837" x2="320.5873" y2="509.1693">
		<stop  offset="0" style="stop-color:#FF488A"/>
		<stop  offset="0.2543" style="stop-color:#FD488A"/>
		<stop  offset="0.3459" style="stop-color:#F6478C"/>
		<stop  offset="0.4112" style="stop-color:#EB458F"/>
		<stop  offset="0.4641" style="stop-color:#DA4294"/>
		<stop  offset="0.5087" style="stop-color:#C43F99"/>
		<stop  offset="0.5481" style="stop-color:#A93BA0"/>
		<stop  offset="0.5486" style="stop-color:#A93BA0"/>
		<stop  offset="0.9271" style="stop-color:#A93BA0"/>
		<stop  offset="0.9622" style="stop-color:#A93BA0"/>
	</linearGradient>
	<path class="st4" d="M176.5,220.5c-6.1-1.6-12.4,2-14.1,8.2c-2,7.7-3.1,15.7-3.1,23.7c0,24.5,9.7,47.7,27.2,65.2
		c17.5,17.5,40.7,27.2,65.2,27.2c24.5,0,47.7-9.7,65.2-27.2s27.2-40.7,27.2-65.2c0-20.7-7.1-41.1-20.1-57.4s-31.2-27.9-51.3-32.6
		c-6.2-1.4-12.4,2.4-13.8,8.6c-1.4,6.2,2.4,12.4,8.6,13.8c31.1,7.3,53.6,35.7,53.6,67.6c0,38.3-31.1,69.4-69.4,69.4
		s-69.4-31.1-69.4-69.4c0-6,0.8-12,2.3-17.8C186.3,228.5,182.7,222.2,176.5,220.5z"/>
	<circle class="st6" cx="408.7" cy="95.9" r="31.2"/>
	<circle class="st6" cx="209.9" cy="182.1" r="31.2"/>
	<circle class="st6" cx="212.9" cy="398.6" r="31.2"/>
</g>
</svg>
